<mxfile host="app.diagrams.net" modified="2023-10-07T06:51:41.448Z" agent="Mozilla/5.0 (Windows NT 10.0; Win64; x64) AppleWebKit/537.36 (KHTML, like Gecko) Chrome/117.0.0.0 Safari/537.36" etag="fn_0heJdFvd6ISgZfXoM" version="22.0.4" type="device">
  <diagram name="Trang-1" id="4-KWCuT25b9VXS04JhfX">
    <mxGraphModel dx="1877" dy="534" grid="1" gridSize="10" guides="1" tooltips="1" connect="1" arrows="1" fold="1" page="1" pageScale="1" pageWidth="827" pageHeight="1169" math="0" shadow="0">
      <root>
        <mxCell id="0" />
        <mxCell id="1" parent="0" />
        <mxCell id="bhxCRKdD7Bg3vfa7f7gh-2" value="Phân tích yêu cầu" style="rounded=1;whiteSpace=wrap;html=1;strokeColor=#cd1d1d;" vertex="1" parent="1">
          <mxGeometry x="-10" y="340" width="140" height="60" as="geometry" />
        </mxCell>
        <mxCell id="bhxCRKdD7Bg3vfa7f7gh-3" value="" style="endArrow=classic;html=1;rounded=0;exitX=1;exitY=0.5;exitDx=0;exitDy=0;entryX=0;entryY=0.5;entryDx=0;entryDy=0;fillColor=#f8cecc;strokeColor=#b85450;" edge="1" parent="1" source="bhxCRKdD7Bg3vfa7f7gh-2" target="bhxCRKdD7Bg3vfa7f7gh-4">
          <mxGeometry width="50" height="50" relative="1" as="geometry">
            <mxPoint x="350" y="500" as="sourcePoint" />
            <mxPoint x="300" y="370" as="targetPoint" />
          </mxGeometry>
        </mxCell>
        <mxCell id="bhxCRKdD7Bg3vfa7f7gh-4" value="Thiết kế ứng dụng" style="rounded=1;whiteSpace=wrap;html=1;strokeColor=#cd1d1d;" vertex="1" parent="1">
          <mxGeometry x="180" y="340" width="140" height="60" as="geometry" />
        </mxCell>
        <mxCell id="bhxCRKdD7Bg3vfa7f7gh-6" value="" style="endArrow=classic;html=1;rounded=0;exitX=1;exitY=0.5;exitDx=0;exitDy=0;entryX=0;entryY=0.5;entryDx=0;entryDy=0;fillColor=#f8cecc;strokeColor=#b85450;" edge="1" parent="1" source="bhxCRKdD7Bg3vfa7f7gh-4" target="bhxCRKdD7Bg3vfa7f7gh-7">
          <mxGeometry width="50" height="50" relative="1" as="geometry">
            <mxPoint x="440" y="420" as="sourcePoint" />
            <mxPoint x="520" y="390" as="targetPoint" />
          </mxGeometry>
        </mxCell>
        <mxCell id="bhxCRKdD7Bg3vfa7f7gh-7" value="Thực hiện dự án" style="rounded=1;whiteSpace=wrap;html=1;strokeColor=#cd1d1d;" vertex="1" parent="1">
          <mxGeometry x="380" y="340" width="140" height="60" as="geometry" />
        </mxCell>
        <mxCell id="bhxCRKdD7Bg3vfa7f7gh-9" value="Kiểm thử và sửa lỗi phần mềm" style="rounded=1;whiteSpace=wrap;html=1;strokeColor=#cd1d1d;" vertex="1" parent="1">
          <mxGeometry x="570" y="340" width="140" height="60" as="geometry" />
        </mxCell>
        <mxCell id="bhxCRKdD7Bg3vfa7f7gh-10" value="" style="endArrow=classic;html=1;rounded=0;exitX=1;exitY=0.5;exitDx=0;exitDy=0;entryX=0;entryY=0.5;entryDx=0;entryDy=0;fillColor=#f8cecc;strokeColor=#b85450;" edge="1" parent="1" source="bhxCRKdD7Bg3vfa7f7gh-7" target="bhxCRKdD7Bg3vfa7f7gh-9">
          <mxGeometry width="50" height="50" relative="1" as="geometry">
            <mxPoint x="450" y="380" as="sourcePoint" />
            <mxPoint x="540" y="380" as="targetPoint" />
          </mxGeometry>
        </mxCell>
        <mxCell id="bhxCRKdD7Bg3vfa7f7gh-12" value="" style="edgeStyle=none;orthogonalLoop=1;jettySize=auto;html=1;rounded=0;exitX=0.5;exitY=1;exitDx=0;exitDy=0;entryX=0.5;entryY=0;entryDx=0;entryDy=0;fillColor=#f8cecc;strokeColor=#b85450;" edge="1" parent="1" source="bhxCRKdD7Bg3vfa7f7gh-9" target="bhxCRKdD7Bg3vfa7f7gh-16">
          <mxGeometry width="80" relative="1" as="geometry">
            <mxPoint x="600" y="460" as="sourcePoint" />
            <mxPoint x="620" y="460" as="targetPoint" />
            <Array as="points" />
          </mxGeometry>
        </mxCell>
        <mxCell id="bhxCRKdD7Bg3vfa7f7gh-16" value="Đóng gói và triển khai phần mềm" style="rounded=1;whiteSpace=wrap;html=1;strokeColor=#cd1d1d;" vertex="1" parent="1">
          <mxGeometry x="570" y="470" width="140" height="60" as="geometry" />
        </mxCell>
      </root>
    </mxGraphModel>
  </diagram>
</mxfile>
